<svg xmlns="http://www.w3.org/2000/svg" width="34" height="34" viewBox="0 0 34 34"><g transform="translate(-23 -353.944)"><circle cx="17" cy="17" r="17" transform="translate(23 353.944)" fill="#4448ff"/><path d="M11.208,5.5C6.959,5.5,3.5,8.3,3.5,11.745a5.534,5.534,0,0,0,1.6,3.812,11.1,11.1,0,0,1-1.5,1.927.273.273,0,0,0-.068.321.309.309,0,0,0,.284.184,7.358,7.358,0,0,0,3.626-.8,9.092,9.092,0,0,0,3.774.8c4.249,0,7.708-2.8,7.708-6.245S15.456,5.5,11.208,5.5ZM8.741,12.34a.6.6,0,1,1,.617-.595A.606.606,0,0,1,8.741,12.34Zm2.467,0a.6.6,0,1,1,.617-.595A.606.606,0,0,1,11.208,12.34Zm2.467,0a.6.6,0,1,1,.617-.595A.606.606,0,0,1,13.674,12.34Z" transform="translate(28.793 359.444)" fill="#fff"/></g></svg>