<svg xmlns="http://www.w3.org/2000/svg" width="34" height="34" viewBox="0 0 34 34"><g transform="translate(-23 -353.943)"><circle cx="17" cy="17" r="17" transform="translate(23 353.943)" fill="#4448ff"/><path d="M135.851,50.152A5.045,5.045,0,0,0,132.314,49a4.378,4.378,0,0,0-2.73.808c-1.078.832-1.584,2.23-1.584,4.439h2.777a3.531,3.531,0,0,1,.253-1.771,1.6,1.6,0,0,1,1.454-.963,1.585,1.585,0,0,1,1.475.742,2.485,2.485,0,0,1,.419,1.476,2.432,2.432,0,0,1-.459,1.287,2.6,2.6,0,0,1-.546.631,7.767,7.767,0,0,0-2.029,1.972,5.883,5.883,0,0,0-.568,2.677c0,.078.022.238.26.238h2.235a.251.251,0,0,0,.257-.254,7.828,7.828,0,0,1,.119-1.213,2.29,2.29,0,0,1,.712-1.119l.749-.586a8.617,8.617,0,0,0,1.454-1.472,4.593,4.593,0,0,0-.712-5.739Zm-3.728,12.015a1.915,1.915,0,0,0-.1,3.8,1.71,1.71,0,0,0,1.761-1.832A1.764,1.764,0,0,0,132.122,62.167Z" transform="translate(-91.945 314.139)" fill="#fff"/></g></svg>