<svg xmlns="http://www.w3.org/2000/svg" width="19.62" height="19.62" viewBox="0 0 19.62 19.62"><g transform="translate(-2 -2)"><path d="M20.443,8.485,18.677,7.33V2.981A.984.984,0,0,0,17.7,2H5.924a.984.984,0,0,0-.981.981V7.33L3.158,8.5A2.937,2.937,0,0,0,2,10.846v7.815A2.963,2.963,0,0,0,4.959,21.62h13.7a2.963,2.963,0,0,0,2.959-2.959V10.846a2.953,2.953,0,0,0-1.177-2.361ZM18.677,10.42,20.159,9.1a2.14,2.14,0,0,1,.435.491l-1.916,1.7ZM3.458,9.1,4.943,10.42V11.3L3.027,9.59A2.2,2.2,0,0,1,3.458,9.1ZM3.167,20.11a2.191,2.191,0,0,1-.34-.572L8,14.894l.491.435ZM13.7,14.047a2.852,2.852,0,0,0-3.78,0l-.948.837L5.6,11.879v-8.9a.327.327,0,0,1,.327-.327H17.7a.327.327,0,0,1,.327.327v8.9l-3.358,2.992ZM20.528,20l-5.379-4.693.494-.438,5.2,4.532A1.969,1.969,0,0,1,20.528,20Z" transform="translate(0)" fill="#4448ff"/><path d="M26.935,12.761l-2.08,2.08-.693-.693A1.309,1.309,0,0,0,22.311,16L23.7,17.385a1.638,1.638,0,0,0,2.312,0l2.776-2.773a1.309,1.309,0,0,0-1.851-1.851Z" transform="translate(-13.411 -6.984)" fill="#4448ff"/></g></svg>