<svg xmlns="http://www.w3.org/2000/svg" width="34" height="34" viewBox="0 0 34 34"><g transform="translate(-23 -211.943)"><circle cx="17" cy="17" r="17" transform="translate(23 211.943)" fill="#4448ff"/><g transform="translate(32.203 221.203)"><path d="M5.574,15.815V13.239a1.193,1.193,0,0,1,1.2-1.191H9.184a1.193,1.193,0,0,1,1.2,1.191v2.576a1.028,1.028,0,0,0,1.03,1.033h1.647a2.889,2.889,0,0,0,2.9-2.883V6.627a2.085,2.085,0,0,0-.752-1.6L9.606.569a2.6,2.6,0,0,0-3.317.06L.812,5.025A2.086,2.086,0,0,0,0,6.627v7.331a2.9,2.9,0,0,0,2.9,2.89h1.61a1.036,1.036,0,0,0,1.038-1.026Z" fill="#fff"/></g></g></svg>