<svg xmlns="http://www.w3.org/2000/svg" width="34" height="34" viewBox="0 0 34 34"><g transform="translate(-23 -306)"><circle cx="17" cy="17" r="17" transform="translate(23 306)" fill="#4448ff"/><g transform="translate(29.8 315.067)"><g transform="translate(7.37)"><g transform="translate(0)"><path d="M533.99,1161.427v6.547s-3.586-1.535-5.089-2.176l0-.007v-6.543l0,.008,5.084,2.176Z" transform="translate(-528.896 -1157.072)" fill="#fcd062" fill-rule="evenodd"/><path d="M545.48,1159.243l0,.008-5.085,2.176v6.542l5.085-2.176,0-.008Z" transform="translate(-535.297 -1157.068)" fill="#f8aa3a" fill-rule="evenodd"/><path d="M533.9,227.623l-5.01,2.176v.006l5.094,2.186,5.1-2.192-5.045-2.176H533.9Z" transform="translate(-528.894 -227.623)" fill="#f8b84e" fill-rule="evenodd"/><path d="M542.352,1173.422a.2.2,0,0,1-.079-.384l1.271-.544a.2.2,0,1,1,.157.368l-1.271.544A.2.2,0,0,1,542.352,1173.422Zm0-.874a.2.2,0,0,1-.079-.384l1.271-.544a.2.2,0,1,1,.157.368l-1.271.544A.2.2,0,0,1,542.352,1172.548Z" transform="translate(-536.388 -1164.063)" fill="#1c4d7e"/></g><path d="M587.645,1280.24l-.031.011-5.06,2.188v3.073l.9-.443.886,1.329v-3.193l5.061-2.211Z" transform="translate(-580.978 -1279.584)" fill="#e9eded" fill-rule="evenodd"/></g><g transform="translate(0 6.428)"><g transform="translate(0 0)"><path d="M-331.537,1358.9l5.22-2.451a.947.947,0,0,1,1.183.571.97.97,0,0,1-.424,1.223l-.173.1-7.1,3.86a2.74,2.74,0,0,1-2.112.334l-7.3-2.473-.21-5.42h4a3.425,3.425,0,0,1,2.406.974,3.335,3.335,0,0,1,.414.492q.092.133.17.275a2.905,2.905,0,0,1,.143.271h3.466a1.129,1.129,0,0,1,1.14,1.123,1.129,1.129,0,0,1-1.14,1.123h-5.084" transform="translate(346.256 -1353.669)" fill="#fff" fill-rule="evenodd"/><rect width="4" height="7.446" rx="2" fill="#fff"/><path d="M-328.41,1359.52l-1.478.694h-.32a1.168,1.168,0,0,0,.25-.029,1.094,1.094,0,0,1-.171.017h-6.193v.731h6.193a1.75,1.75,0,0,0,1.719-1.414Z" transform="translate(344.606 -1354.98)" fill="#f5f4f4"/></g></g></g></g></svg>