<svg xmlns="http://www.w3.org/2000/svg" width="30" height="30" viewBox="0 0 30 30"><g transform="translate(-25 -409)"><circle cx="15" cy="15" r="15" transform="translate(25 409)" fill="#ed1c24"/><path d="M13.111,2H6.1A2.065,2.065,0,0,0,4,4.1V8.308h6.027L8.415,6.7A.694.694,0,0,1,9.4,5.714l2.8,2.8a.677.677,0,0,1,0,.981h0L9.4,12.3a.694.694,0,0,1-.981-.981l1.612-1.612H4v4.205a2.065,2.065,0,0,0,2.1,2.1h7.008a2.065,2.065,0,0,0,2.1-2.1V4.1A2.065,2.065,0,0,0,13.111,2Z" transform="translate(30 415.077)" fill="#fff"/></g></svg>