<svg xmlns="http://www.w3.org/2000/svg" width="34" height="34" viewBox="0 0 34 34"><g transform="translate(-23 -306)"><circle cx="17" cy="17" r="17" transform="translate(23 306)" fill="#4448ff"/><path d="M76.953,64H65.506A1.76,1.76,0,0,0,64,65.933V80.624a1.76,1.76,0,0,0,1.506,1.933H76.953a1.76,1.76,0,0,0,1.506-1.933V65.933A1.76,1.76,0,0,0,76.953,64ZM73.037,78.691H67.012v-2.32h6.025Zm2.41-4.253H67.012v-2.32h8.435Zm0-4.253H67.012v-2.32h8.435Z" transform="translate(-30.8 249.933)" fill="#fff"/></g></svg>