<svg xmlns="http://www.w3.org/2000/svg" width="34" height="34" viewBox="0 0 34 34"><g transform="translate(8.162 10.199)"><circle cx="17" cy="17" r="17" transform="translate(-8.162 -10.199)" fill="#4448ff"/><path d="M18.272,5H4.872A2.893,2.893,0,0,0,2,7.915v7.772A2.893,2.893,0,0,0,4.872,18.6h13.4a2.893,2.893,0,0,0,2.872-2.915V7.915A2.893,2.893,0,0,0,18.272,5Zm-7.658,9.716H6.786a.972.972,0,0,1,0-1.943h3.829a.972.972,0,0,1,0,1.943Zm5.743,0H14.444a.972.972,0,0,1,0-1.943h1.914a.972.972,0,0,1,0,1.943ZM19.23,8.886H3.914V7.915a.964.964,0,0,1,.957-.972h13.4a.964.964,0,0,1,.957.972Z" transform="translate(-2 -5)" fill="#fff"/></g></svg>