<svg xmlns="http://www.w3.org/2000/svg" width="34" height="34" viewBox="0 0 34 34"><g transform="translate(-23 -305.943)"><circle cx="17" cy="17" r="17" transform="translate(23 305.943)" fill="#4448ff"/><g transform="translate(30.833 315.139)"><path d="M15.229,8.758a.725.725,0,0,1,.2,0l1.032.344V2H14V9.133l1.032-.375a.725.725,0,0,1,.2,0Z" transform="translate(-6.628 -2)" fill="#fff"/><rect width="6.528" height="2.611" transform="translate(5.222 10.674)" fill="#fff"/><path d="M17.359,2h-4.3V9.987a.614.614,0,0,1-.258.5.577.577,0,0,1-.356.117.731.731,0,0,1-.2,0L10.6,9.987l-1.646.553a.621.621,0,0,1-.811-.553V2h-4.3A1.843,1.843,0,0,0,2,3.843V5.072A1.843,1.843,0,0,0,3.229,6.8V17.359A1.843,1.843,0,0,0,5.072,19.2H16.13a1.843,1.843,0,0,0,1.843-1.843V6.8A1.843,1.843,0,0,0,19.2,5.072V3.843A1.843,1.843,0,0,0,17.359,2ZM14.9,16.13a.614.614,0,0,1-.614.614H6.915A.614.614,0,0,1,6.3,16.13V12.444a.614.614,0,0,1,.614-.614h7.372a.614.614,0,0,1,.614.614Z" transform="translate(-2 -2)" fill="#fff"/></g></g></svg>