<svg xmlns="http://www.w3.org/2000/svg" width="21.366" height="21.365" viewBox="0 0 21.366 21.365"><path d="M15.661,0c3.632,0,5.7,2.051,5.7,5.694h0v9.978c0,3.621-2.062,5.694-5.694,5.694H5.694C2.051,21.366,0,19.293,0,15.672H0V5.694C0,2.051,2.051,0,5.694,0h9.967ZM10.672,5.886a.884.884,0,0,0-.887.887h0V9.785H6.762a.876.876,0,0,0-.887.887.9.9,0,0,0,.887.9H9.786v3.023a.887.887,0,0,0,1.773,0h0V11.57h3.034a.9.9,0,0,0,.887-.9.884.884,0,0,0-.887-.887H11.559V6.773A.884.884,0,0,0,10.672,5.886Z" transform="translate(0 0)" fill="#4448ff"/></svg>