<svg xmlns="http://www.w3.org/2000/svg" width="34" height="34" viewBox="0 0 34 34"><g transform="translate(-23 -681)"><circle cx="17" cy="17" r="17" transform="translate(23 681)" fill="#4448ff"/><path d="M18.039,22.143a1.033,1.033,0,0,1-.48-.118l-5.253-2.762L7.053,22.025a1.031,1.031,0,0,1-1.5-1.086l1-5.849-4.25-4.142a1.031,1.031,0,0,1,.571-1.758l5.873-.853,2.626-5.322a1.074,1.074,0,0,1,1.849,0l2.626,5.322,5.873.853a1.031,1.031,0,0,1,.571,1.758l-4.25,4.142,1,5.849a1.031,1.031,0,0,1-1.016,1.2Z" transform="translate(27.694 685.686)" fill="#fff"/></g></svg>