<svg xmlns="http://www.w3.org/2000/svg" width="34" height="34" viewBox="0 0 34 34"><g transform="translate(-23 -256.943)"><circle cx="17" cy="17" r="17" transform="translate(23 256.943)" fill="#4448ff"/><g transform="translate(30 266.943)"><path d="M13.122,10.719v9.447a.433.433,0,0,1-.432.432H8.563a2.947,2.947,0,0,0-5.881,0H2.271a1.268,1.268,0,0,1-1.266-1.266V10.719A1.265,1.265,0,0,1,2.271,9.453h9.585A1.265,1.265,0,0,1,13.122,10.719Zm8.414,4.2-1.91-2.735a1.282,1.282,0,0,0-1.054-.54H13.986v8.526a1.263,1.263,0,0,1-.074.423.381.381,0,0,0,.074.009h.726a2.945,2.945,0,0,1,5.877,0,1.236,1.236,0,0,0,1.154-1.214v-3.8A1.208,1.208,0,0,0,21.536,14.915Zm-5.881.964V13.74h2.5l1.5,2.143Z" transform="translate(-1.005 -9.453)" fill="#fff"/><circle cx="2.089" cy="2.089" r="2.089" transform="translate(2.53 9.26)" fill="#fff"/><circle cx="2.089" cy="2.089" r="2.089" transform="translate(14.557 9.26)" fill="#fff"/></g></g></svg>