<svg xmlns="http://www.w3.org/2000/svg" width="34" height="34" viewBox="0 0 34 34"><g transform="translate(-23 -256.943)"><circle cx="17" cy="17" r="17" transform="translate(23 256.943)" fill="#4448ff"/><g transform="translate(28.222 262.222)"><path d="M0,0H24.206V24.206H0Z" fill="none"/><path d="M18.129,16.2a2.937,2.937,0,0,0-1.977.777L8.961,12.792a3.3,3.3,0,0,0,.091-.706,3.3,3.3,0,0,0-.091-.706l7.111-4.145A3.019,3.019,0,1,0,15.1,5.026a3.3,3.3,0,0,0,.091.706L8.083,9.877a3.026,3.026,0,1,0,0,4.418l7.181,4.2a2.845,2.845,0,0,0-.081.656A2.945,2.945,0,1,0,18.129,16.2Z" transform="translate(0.026 0.017)" fill="#fff"/></g></g></svg>