<svg xmlns="http://www.w3.org/2000/svg" width="28" height="29" viewBox="0 0 28 29"><g transform="translate(-126.444 -2.151)"><ellipse cx="14" cy="14.5" rx="14" ry="14.5" transform="translate(126.444 2.151)" fill="#2daae1"/><path d="M250.571,145.1a7.559,7.559,0,0,1-2.175.6,3.8,3.8,0,0,0,1.665-2.095,7.564,7.564,0,0,1-2.4.919,3.788,3.788,0,0,0-6.549,2.591,3.83,3.83,0,0,0,.1.863,10.75,10.75,0,0,1-7.8-3.956,3.79,3.79,0,0,0,1.172,5.055,3.769,3.769,0,0,1-1.715-.473v.048a3.788,3.788,0,0,0,3.037,3.712,3.767,3.767,0,0,1-1,.133,3.844,3.844,0,0,1-.713-.067,3.791,3.791,0,0,0,3.536,2.629,7.623,7.623,0,0,1-5.605,1.567,10.766,10.766,0,0,0,16.576-9.07q0-.246-.012-.49A7.714,7.714,0,0,0,250.571,145.1Z" transform="translate(-100.507 -134.063)" fill="#fff"/></g></svg>